<?xml version='1.0' encoding='UTF-8' standalone='no'?>
<svg xmlns:xlink="http://www.w3.org/1999/xlink" height="314pt" width="419pt" xmlns="http://www.w3.org/2000/svg" viewBox="0 0 419 314">
 <title>Figure 1</title>
 <desc>
Creator: GL2PS 1.4.2, (C) 1999-2020 C. Geuzaine
For: Octave
CreationDate: Sun Jan  7 17:11:15 2024
</desc>
 <defs/>
 <polygon fill="#ffffff" points="0,0 419,0 419,314 0,314"/>
 <g>
  <polygon fill="#ffffff" points="0,314 419,314 419,0 0,0" shape-rendering="crispEdges"/>
  <clipPath id="cp00419314">
   <polygon points="0,314 419,314 419,0 0,0"/>
  </clipPath>
  <g clip-path="url(#cp00419314)">
   <polygon fill="#ffffff" points="54.5283,130.054 379.601,130.054 379.601,23.5826 54.5283,23.5826" shape-rendering="crispEdges"/>
   <polyline stroke="#262626" stroke-width="0.5" fill="none" points="58.0889,130.054 58.0889,126.786" stroke-linecap="butt" stroke-linejoin="miter"/>
   <polyline stroke="#262626" stroke-width="0.5" fill="none" points="58.0889,23.5826 58.0889,26.8406" stroke-linecap="butt" stroke-linejoin="miter"/>
   <polyline stroke="#262626" stroke-width="0.5" fill="none" points="107.4,130.054 107.4,126.786" stroke-linecap="butt" stroke-linejoin="miter"/>
   <polyline stroke="#262626" stroke-width="0.5" fill="none" points="107.4,23.5826 107.4,26.8406" stroke-linecap="butt" stroke-linejoin="miter"/>
   <polyline stroke="#262626" stroke-width="0.5" fill="none" points="156.712,130.054 156.712,126.786" stroke-linecap="butt" stroke-linejoin="miter"/>
   <polyline stroke="#262626" stroke-width="0.5" fill="none" points="156.712,23.5826 156.712,26.8406" stroke-linecap="butt" stroke-linejoin="miter"/>
   <polyline stroke="#262626" stroke-width="0.5" fill="none" points="206.023,130.054 206.023,126.786" stroke-linecap="butt" stroke-linejoin="miter"/>
   <polyline stroke="#262626" stroke-width="0.5" fill="none" points="206.023,23.5826 206.023,26.8406" stroke-linecap="butt" stroke-linejoin="miter"/>
   <polyline stroke="#262626" stroke-width="0.5" fill="none" points="255.335,130.054 255.335,126.786" stroke-linecap="butt" stroke-linejoin="miter"/>
   <polyline stroke="#262626" stroke-width="0.5" fill="none" points="255.335,23.5826 255.335,26.8406" stroke-linecap="butt" stroke-linejoin="miter"/>
   <polyline stroke="#262626" stroke-width="0.5" fill="none" points="304.646,130.054 304.646,126.786" stroke-linecap="butt" stroke-linejoin="miter"/>
   <polyline stroke="#262626" stroke-width="0.5" fill="none" points="304.646,23.5826 304.646,26.8406" stroke-linecap="butt" stroke-linejoin="miter"/>
   <polyline stroke="#262626" stroke-width="0.5" fill="none" points="353.958,130.054 353.958,126.786" stroke-linecap="butt" stroke-linejoin="miter"/>
   <polyline stroke="#262626" stroke-width="0.5" fill="none" points="353.958,23.5826 353.958,26.8406" stroke-linecap="butt" stroke-linejoin="miter"/>
   <g transform="translate(49.089,145.591) rotate(-0,9,-8)" font-weight="normal" font-size="10" xml:space="preserve" font-style="normal" font-family="FreeSans">
    <text x="0 6 12 " y="-0" fill="rgb(38,38,38)">950</text>
   </g>
   <g transform="translate(95.4004,145.591) rotate(-0,12,-8)" font-weight="normal" font-size="10" xml:space="preserve" font-style="normal" font-family="FreeSans">
    <text x="0 6 12 18 " y="-0" fill="rgb(38,38,38)">1000</text>
   </g>
   <g transform="translate(144.712,145.591) rotate(-0,12,-8)" font-weight="normal" font-size="10" xml:space="preserve" font-style="normal" font-family="FreeSans">
    <text x="0 6 12 18 " y="-0" fill="rgb(38,38,38)">1050</text>
   </g>
   <g transform="translate(194.023,145.591) rotate(-0,12,-8)" font-weight="normal" font-size="10" xml:space="preserve" font-style="normal" font-family="FreeSans">
    <text x="0 6 12 18 " y="-0" fill="rgb(38,38,38)">1100</text>
   </g>
   <g transform="translate(243.335,145.591) rotate(-0,12,-8)" font-weight="normal" font-size="10" xml:space="preserve" font-style="normal" font-family="FreeSans">
    <text x="0 6 12 18 " y="-0" fill="rgb(38,38,38)">1150</text>
   </g>
   <g transform="translate(292.646,145.591) rotate(-0,12,-8)" font-weight="normal" font-size="10" xml:space="preserve" font-style="normal" font-family="FreeSans">
    <text x="0 6 12 18 " y="-0" fill="rgb(38,38,38)">1200</text>
   </g>
   <g transform="translate(341.958,145.591) rotate(-0,12,-8)" font-weight="normal" font-size="10" xml:space="preserve" font-style="normal" font-family="FreeSans">
    <text x="0 6 12 18 " y="-0" fill="rgb(38,38,38)">1250</text>
   </g>
   <polyline stroke="#262626" stroke-width="0.5" fill="none" points="54.5283,123.758 57.7796,123.758" stroke-linecap="butt" stroke-linejoin="miter"/>
   <polyline stroke="#262626" stroke-width="0.5" fill="none" points="379.601,123.758 376.349,123.758" stroke-linecap="butt" stroke-linejoin="miter"/>
   <polyline stroke="#262626" stroke-width="0.5" fill="none" points="54.5283,96.7547 57.7796,96.7547" stroke-linecap="butt" stroke-linejoin="miter"/>
   <polyline stroke="#262626" stroke-width="0.5" fill="none" points="379.601,96.7547 376.349,96.7547" stroke-linecap="butt" stroke-linejoin="miter"/>
   <polyline stroke="#262626" stroke-width="0.5" fill="none" points="54.5283,69.7703 57.7796,69.7703" stroke-linecap="butt" stroke-linejoin="miter"/>
   <polyline stroke="#262626" stroke-width="0.5" fill="none" points="379.601,69.7703 376.349,69.7703" stroke-linecap="butt" stroke-linejoin="miter"/>
   <polyline stroke="#262626" stroke-width="0.5" fill="none" points="54.5283,42.7572 57.7796,42.7572" stroke-linecap="butt" stroke-linejoin="miter"/>
   <polyline stroke="#262626" stroke-width="0.5" fill="none" points="379.601,42.7572 376.349,42.7572" stroke-linecap="butt" stroke-linejoin="miter"/>
   <g transform="translate(10.5271,127.771) rotate(-0,39,-4)" font-weight="normal" font-size="10" xml:space="preserve" font-style="normal" font-family="FreeSans">
    <text x="0 6 9 15 21 27 33 " y="-0" fill="rgb(38,38,38)">0.26225</text>
   </g>
   <g transform="translate(16.5271,100.771) rotate(-0,33,-4)" font-weight="normal" font-size="10" xml:space="preserve" font-style="normal" font-family="FreeSans">
    <text x="0 6 9 15 21 27 " y="-0" fill="rgb(38,38,38)">0.2623</text>
   </g>
   <g transform="translate(10.5271,73.7707) rotate(-0,39,-4)" font-weight="normal" font-size="10" xml:space="preserve" font-style="normal" font-family="FreeSans">
    <text x="0 6 9 15 21 27 33 " y="-0" fill="rgb(38,38,38)">0.26235</text>
   </g>
   <g transform="translate(16.5271,46.7705) rotate(-0,33,-4)" font-weight="normal" font-size="10" xml:space="preserve" font-style="normal" font-family="FreeSans">
    <text x="0 6 9 15 21 27 " y="-0" fill="rgb(38,38,38)">0.2624</text>
   </g>
   <polyline stroke="#262626" stroke-dasharray="16,0" stroke-width="0.5" fill="none" points="54.5283,130.054 379.601,130.054" stroke-linecap="square" stroke-linejoin="miter"/>
   <polyline stroke="#262626" stroke-dasharray="16,0" stroke-width="0.5" fill="none" points="54.5283,23.5826 379.601,23.5826" stroke-linecap="square" stroke-linejoin="miter"/>
   <polyline stroke="#262626" stroke-dasharray="16,0" stroke-width="0.5" fill="none" points="54.5283,130.054 54.5283,23.5826" stroke-linecap="square" stroke-linejoin="miter"/>
   <polyline stroke="#262626" stroke-dasharray="16,0" stroke-width="0.5" fill="none" points="379.601,130.054 379.601,23.5826" stroke-linecap="square" stroke-linejoin="miter"/>
   <g transform="translate(-36.9729,76.8262) rotate(-90,42.5,0)" font-weight="normal" font-size="11" xml:space="preserve" font-style="normal" font-family="FreeSans">
    <text x="0 9 16 19 22 30 33 37 43 49 55 57 63 69 72 76 81 " y="-3" fill="rgb(38,38,38)">OP tw ranging (s)</text>
   </g>
   <g transform="translate(159.064,162.591) rotate(-0,58,-12)" font-weight="normal" font-size="11" xml:space="preserve" font-style="normal" font-family="FreeSans">
    <text x="0 3 5 14 20 23 27 36 42 50 54 60 66 72 78 84 87 90 96 102 107 112 " y="-3" fill="rgb(38,38,38)">time (MJD-59000, days)</text>
   </g>
   <polyline stroke="#0071bc" stroke-width="0.5" fill="none" points="55.131,47.2802 55.0761,41.4923 55.0214,43.6292 54.9666,54.6587 54.9118,72.6163 54.8569,92.3084 54.8022,107.104 54.7475,112.365 54.6926,109.097 54.6378,97.138 54.583,81.0969 54.5283,65.3911 56.1172,52.7039 56.0624,44.8366 56.0076,43.9071 55.9528,51.7456 55.898,67.6718 55.8432,87.5363 55.7885,104.689 55.7336,112.997 55.6789,109.854 55.6241,97.2817 55.5693,80.4836 55.5145,64.6341 57.1034,52.7997 57.0486,46.2357 56.9939,46.0728 56.9391,53.6525 56.8843,68.7546 56.8294,87.9388 56.7747,104.929 56.7199,113.447 56.6651,110.333 56.6102,97.3201 56.5555,79.7266 56.5008,63.4746 58.0896,52.2056 58.0349,46.9448 57.98,47.8647 57.9253,55.5882 57.8705,70.0195 57.8157,88.3892 57.7609,105.015 57.7061,113.601 57.6514,110.611 57.5965,97.2817 57.5417,78.9695 57.487,62.1043 59.0758,50.9982 59.0211,46.8298 58.9663,49.0242 58.9115,57.2651 58.8566,71.246 58.8019,88.7916 58.7472,104.852 58.6923,113.409 58.6376,110.611 58.5827,97.1859 58.528,78.2988 58.4732,60.6861 60.0621,49.4075 60.0073,45.9769 59.9525,49.4075 59.8978,58.4246 59.8429,72.2139 59.7882,88.9449 59.7333,104.354 59.6786,112.796 59.6239,110.256 59.569,96.9751 59.5142,77.7526 59.4594,59.4212 61.0483,47.6539 60.9935,44.5491 60.9388,48.9858 60.884,58.8846 60.8291,72.7122 60.7744,88.7437 60.7196,103.386 60.6648,111.588 60.61,109.384 60.5552,96.563 60.5005,77.3118 60.4456,58.4246 62.0346,45.9769 61.9797,42.7764 61.925,47.8934 61.8702,58.645 61.8154,72.6834 61.7606,88.0442 61.7058,101.843 61.6511,109.71 61.5962,107.87 61.5414,95.7198 61.4866,76.8806 61.4319,57.7443 63.0208,44.6162 62.966,40.9461 62.9112,46.3219 62.8564,57.7634 62.8016,72.051 62.7468,86.8847 62.6921,99.7444 62.6373,107.104 62.5825,105.59 62.5277,94.3399 62.4729,76.296 62.4181,57.3226 64.007,43.6484 63.9522,39.2883 63.8975,44.4821 63.8427,56.326 63.7879,70.9106 63.733,85.2844 63.6783,97.1763 63.6236,103.807 63.5687,102.466 63.5139,92.2126 63.4591,75.3857 63.4044,57.0543 64.9932,43.1501 64.9385,37.9947 64.8837,42.6326 64.8289,54.5054 64.7741,69.3199 64.7193,83.3679 64.6645,94.2632 64.6097,101.594 64.555,103.558 64.5002,96.5726 64.4453,81.8156 64.3906,63.4075 65.9794,47.3472 65.9247,39.8633 65.8699,43.84 65.8151,55.8469 65.7603,71.4089 65.7055,85.9265 65.6508,96.4193 65.5959,103.146 65.5412,104.622 65.4863,97.9908 65.4316,84.2495 65.3768,66.7422 66.9657,50.4999 66.9109,41.7319 66.8561,44.0604 66.8014,55.1187 66.7465,70.8436 66.6918,85.9552 66.6369,96.6397 66.5822,103.175 66.5275,104.497 66.4726,98.4412 66.4178,85.9073 66.363,69.5691 67.9519,53.6046 67.8972,43.9838 67.8424,44.6737 67.7876,54.4575 67.7327,70.1153 67.678,86.0319 67.6232,97.3009 67.5684,103.788 67.5137,104.593 67.4588,98.537 67.4041,86.8368 67.3492,71.7156 68.9382,56.441 68.8833,46.4752 68.8286,45.7086 68.7738,54.055 68.719,69.3295 68.6642,86.0989 68.6094,98.4316 68.5547,105.206 68.4998,105.36 68.445,98.7191 68.3902,87.2297 68.3355,73.0475 69.9244,58.7408 69.8696,48.9379 69.8148,47.1077 69.76,53.9113 69.7052,68.4479 69.6505,85.9265 69.5957,99.6965 69.5409,107.363 69.4861,107.008 69.4313,99.2941 69.3765,87.2584 69.3217,73.5363 70.9107,60.2261 70.8558,51.094 70.8011,48.7654 70.7463,54.2083 70.6915,67.6238 70.6366,85.3802 70.5819,100.712 70.5272,109.854 70.4723,109.452 70.4175,100.473 70.3627,87.1434 70.308,73.1434 71.8969,60.5903 71.8421,52.5601 71.7873,50.452 71.7325,55.0228 71.6777,67.1735 71.6229,84.6041 71.5681,101.096 71.5133,109.595 71.4586,106.701 71.4037,94.7903 71.3489,79.6116 71.2942,66.2248 72.883,56.9585 72.8283,52.0139 72.7735,51.3431 72.7187,55.8948 72.6639,66.6943 72.6091,82.5917 72.5544,98.7383 72.4995,108.081 72.4448,105.916 72.3899,93.3912 72.3352,76.6218 72.2805,62.2385 73.8693,53.9017 73.8145,51.5827 73.7597,53.9017 73.705,60.2261 73.6501,70.8436 73.5954,85.1694 73.5406,99.7444 73.4858,108.58 73.4311,106.462 73.3762,93.2954 73.3214,74.8874 73.2666,58.8846 74.8555,50.0878 74.8008,48.9379 74.746,53.4321 74.6912,61.5294 74.6363,72.4726 74.5816,85.5815 74.5268,98.585 74.472,106.797 74.4173,105.168 74.3624,92.4234 74.3077,73.2104 74.2528,55.7128 75.8418,46.3315 75.787,46.4656 75.7322,53.7484 75.6775,64.8737 75.6226,77.5034 75.5678,90.2865 75.513,101.402 75.4583,107.669 75.4034,105.159 75.3486,92.2988 75.2939,72.6163 75.2391,53.8058 76.828,42.9584 76.7732,42.7285 76.7184,51.2569 76.6637,64.5862 76.6088,79.1133 76.5541,92.4138 76.4992,102.6 76.4445,107.372 76.3897,104.124 76.3349,91.5035 76.2802,72.051 76.2253,52.493 77.8143,40.2178 77.7594,39.0775 77.7047,48.0372 77.6499,63.053 77.5951,79.5828 77.5403,94.0333 77.4855,103.913 77.4308,107.42 77.3759,103.098 77.3211,90.4111 77.2663,71.4377 77.2116,51.7744 78.8005,38.4834 78.7457,36.1644 78.6909,44.8079 78.6361,60.7723 78.5813,78.9887 78.5265,94.8094 78.4717,104.929 78.4169,107.535 78.3622,102.083 78.3074,89.0599 78.2525,70.6519 78.1978,51.4677 79.7866,37.7264 79.7319,34.315 79.6772,42.1535 79.6223,58.3096 79.5675,77.5992 79.5127,94.6753 79.458,105.331 79.4031,107.42 79.3484,100.952 79.2935,87.4405 79.2388,69.5403 79.1841,51.2281 80.7729,37.688 80.7181,33.5197 80.6633,40.352 80.6086,56.0673 80.5538,75.8361 80.499,93.8129 80.4442,105.216 80.3894,109.777 80.3347,104.9 80.2798,92.0209 80.225,74.207 80.1702,55.2145 81.7591,39.8441 81.7044,34.5067 81.6496,39.9112 81.5948,54.6683 81.5399,74.5328 81.4852,93.5062 81.4305,106.117 81.3756,111.272 81.3209,106.155 81.266,92.73 81.2113,74.8395 81.1564,56.4219 82.7454,41.569 82.6906,35.9057 82.6358,40.1891 82.5811,53.8538 82.5262,73.3829 82.4714,92.96 82.4166,106.634 82.3619,112.489 82.3071,107.267 82.2522,93.2667 82.1975,75.0599 82.1427,57.0352 83.7316,42.8914 83.6768,37.3718 83.622,40.8982 83.5673,53.4992 83.5124,72.4726 83.4577,92.3467 83.4028,106.615 83.3481,110.467 83.2933,102.935 83.2385,87.2776 83.1838,68.975 83.1289,52.9147 84.7179,41.9906 84.663,37.7264 84.6083,41.3294 84.5535,53.1542 84.4987,71.2269 84.4439,90.6506 84.3891,105.331 84.3344,112.106 84.2795,106.634 84.2247,91.3597 84.1699,72.0318 84.1152,54.3329 85.7041,42.0673 85.6493,38.3013 85.5945,41.9427 85.5397,53.1255 85.4849,70.5178 85.4301,89.8361 85.3753,105.168 85.3206,112.786 85.2658,107.65 85.211,91.9059 85.1561,71.6677 85.1014,53.298 86.6903,41.2144 86.6355,38.1097 86.5808,42.0673 86.5259,52.9147 86.4711,69.6841 86.4163,88.8012 86.3616,104.708 86.3067,113.217 86.252,108.618 86.1972,92.6342 86.1424,71.4281 86.0876,52.1002 87.6765,39.7675 87.6217,37.1418 87.5669,41.5881 87.5122,52.3397 87.4574,68.5917 87.4026,87.4405 87.3478,103.807 87.293,113.237 87.2383,109.423 87.1834,93.4871 87.1286,71.4377 87.0739,51.094 88.6627,38.7517 88.608,37.2377 88.5532,43.2459 88.4984,55.042 88.4436,71.4377 88.3888,89.9799 88.3341,105.619 88.2792,112.365 88.2245,106.538 88.1696,89.4624 88.1149,67.2405 88.06,47.9413 89.649,37.6401 89.5942,37.5635 89.5394,45.4786 89.4847,58.5492 89.4298,74.9641 89.375,92.5671 89.3203,107.171 89.2655,113.313 89.2107,107.41 89.1558,90.3632 89.1011,67.9592 89.0463,48.1713 90.6352,37.2281 90.5805,37.0173 90.5256,45.3349 90.4709,58.6738 90.416,74.6095 90.3613,91.2064 90.3064,105.044 90.2517,111.339 90.1969,106.395 90.1421,90.5548 90.0874,68.8312 90.0325,48.8421 91.6215,37.1802 91.5666,36.4232 91.5119,44.7887 91.4572,58.3384 91.4023,73.9004 91.3475,89.4816 91.2927,102.389 91.238,108.58 91.1831,104.593 91.1283,90.2386 91.0735,69.6649 91.0188,49.9058 92.6077,37.5922 92.5529,36.0015 92.4981,44.0029 92.4433,57.6197 92.3885,72.9517 92.3338,87.613 92.2789,99.4378 92.2242,105.254 92.1694,102.054 92.1146,89.2708 92.0597,70.2495 92.005,51.1802 93.5939,38.4451 93.5391,35.8578 93.4844,43.1118 93.4295,56.5656 93.3747,71.8114 93.3199,85.7923 93.2652,96.5151 93.2104,101.632 93.1556,98.8437 93.1008,87.5651 93.046,70.3453 92.9912,52.493 94.5801,40.1508 94.5253,37.3239 94.4706,44.415 94.4158,58.2617 94.361,74.0441 94.3062,87.795 94.2514,97.2242 94.1966,100.808 94.1419,97.2722 94.0871,86.5493 94.0322,70.8436 93.9775,54.4766 95.5663,42.5176 95.5116,38.8667 95.4568,44.712 95.402,57.8401 95.3472,73.6417 95.2924,87.3734 95.2377,97.3009 95.1828,102.054 95.1281,99.4857 95.0732,89.7978 95.0185,74.897 94.9637,58.4246 96.5526,45.517 96.4978,40.6874 96.443,44.8654 96.3883,57.0543 96.3334,73.2296 96.2786,88.0346 96.2239,98.652 96.1691,103.05 96.1143,99.8307 96.0594,90.0565 96.0047,75.8936 95.9499,60.4465 97.5388,47.9893 97.4841,42.4697 97.4292,45.1624 97.3745,56.1823 97.3196,72.4822 97.2649,88.5616 97.21,100.406 97.1553,104.785 97.1006,100.693 97.0457,90.1907 96.991,76.1523 96.9361,61.5581 98.5251,49.9058 98.4703,44.2233 98.4155,45.7374 98.3608,55.3774 98.3059,71.3706 98.2511,88.5808 98.1963,102.083 98.1416,107.018 98.0867,102.102 98.0319,90.3152 97.9772,75.6923 97.9224,61.5581 99.5113,50.9023 99.4565,45.6703 99.4017,46.5615 99.3469,54.9078 99.2921,70.1057 99.2374,87.9388 99.1825,103.156 99.1278,109.193 99.073,103.807 99.0182,90.4494 98.9633,74.4945 98.9086,60.2549 100.497,50.6149 100.443,46.4465 100.388,47.5389 100.333,55.042 100.278,69.1379 100.224,86.8751 100.169,101.824 100.114,107.2 100.059,100.616 100.004,85.6486 99.9496,68.9271 99.8948,55.9427 101.484,48.9571 101.429,47.491 101.374,50.634 101.319,58.5204 101.265,71.4856 101.21,87.8046 101.155,103.865 101.1,111.541 101.046,105.964 100.991,89.6253 100.936,69.9236 100.881,54.055 102.47,46.3506 102.415,46.3315 102.36,51.2952 102.306,60.1591 102.251,72.8559 102.196,88.2933 102.141,104.172 102.086,112.604 102.032,107.775 101.977,90.7848 101.922,68.9941 101.867,51.0844 103.456,43.1501 103.401,44.9516 103.347,52.9147 103.292,64.4424 103.237,78.2604 103.182,93.2092 103.127,106.213 103.073,112.01 103.018,105.944 102.963,88.3221 102.908,65.8894 102.854,47.7209 104.442,39.6716 104.388,42.211 104.333,52.1481 104.278,65.7265 104.223,80.4836 104.168,94.8094 104.114,106.328 104.059,111.109 104.004,105.187 103.949,88.1113 103.895,65.4199 103.84,45.9961 105.429,36.7106 105.374,39.1063 105.319,50.2795 105.264,65.7552 105.21,81.921 105.155,96.3043 105.1,106.721 105.045,110.285 104.99,104.124 104.936,87.7375 104.881,65.4869 104.826,45.4211 106.415,34.8708 106.36,36.4711 106.305,47.9893 106.251,64.8066 106.196,82.3522 106.141,97.253 106.086,107.018 106.031,109.452 105.977,102.801 105.922,87.0668 105.867,65.7552 105.812,45.7853 107.401,34.315 107.346,34.775 107.292,45.9003 107.237,63.2925 107.182,81.9018 107.127,97.5405 107.072,109.921 107.018,114.597 106.963,109.126 106.908,93.7745 106.853,71.7252 106.798,49.3787 108.387,35.8865 108.333,34.2192 108.278,43.8879 108.223,61.2515 108.168,81.116 108.113,98.4796 108.059,112.125 108.004,117.079 107.949,111.416 107.894,96.1606 107.839,74.5616 107.785,52.3206 109.374,37.8989 109.319,34.4396 109.264,42.5081 109.209,59.402 109.154,80.0811 109.1,98.9874 109.045,113.994 108.99,119.369 108.935,113.495 108.88,98.0292 108.826,76.7177 108.771,54.812 110.36,39.9783 110.305,35.1295 110.25,41.6648 110.196,57.8401 110.141,78.9887 110.086,99.0545 110.031,112.345 109.976,115.306 109.921,107.65 109.867,92.088 109.812,72.8271 109.757,54.4287 111.346,41.2336 111.291,36.7873 111.236,42.9105 111.182,58.4342 111.127,79.2762 111.072,99.3899 111.017,112.643 110.963,115.086 110.908,106.51 110.853,90.2003 110.798,71.179 110.743,53.9975 112.332,42.1056 112.277,38.0905 112.223,43.6005 112.168,58.0988 112.113,78.2317 112.058,98.2017 112.004,111.588 111.949,113.974 111.894,104.929 111.839,88.0825 111.784,69.0612 111.73,52.7997 113.318,42.2014 113.264,38.9146 113.209,44.0988 113.154,57.6293 113.099,76.9285 113.045,96.9655 112.99,112.24 112.935,116.054 112.88,107.248 112.825,89.4337 112.771,68.9654 112.716,51.5635 114.305,41.5402 114.25,38.9338 114.195,44.1275 114.14,57.1501 114.086,76.0565 114.031,96.3522 113.976,112.288 113.921,116.648 113.866,107.727 113.812,89.0791 113.757,67.528 113.702,49.6662 115.291,40.0549 115.236,38.1768 115.181,43.61 115.127,56.259 115.072,74.7341 115.017,95.1736 114.962,111.771 114.907,116.916 114.853,108.225 114.798,88.9641 114.743,66.3015 114.688,47.558 116.277,36.7873 116.222,34.4587 116.168,39.7387 116.113,52.2439 116.058,70.9106 116.003,91.9443 115.948,108.79 115.894,114.76 115.839,106.864 115.784,87.7759 115.729,64.6341 115.674,45.5936 117.263,36.8735 117.209,37.4389 117.154,45.0953 117.099,58.2905 117.044,75.9415 116.989,95.0969 116.935,110.161 116.88,114.952 116.825,106.471 116.77,87.1339 116.716,64.0879 116.661,45.4499 118.25,36.3082 118.195,36.9694 118.14,44.8079 118.085,57.5814 118.03,74.14 117.976,92.2797 117.921,107.219 117.866,112.959 117.811,105.992 117.757,87.8525 117.702,65.0845 117.647,45.8524 119.236,35.9249 119.181,36.2315 119.126,44.0988 119.071,56.5656 119.017,72.1276 118.962,89.127 118.907,103.645 118.852,110.18 118.798,104.852 118.743,88.3412 118.688,66.3206 118.633,46.8202 120.222,36.1932 120.167,36.2123 120.113,44.415 120.058,57.1789 120.003,72.2618 119.948,88.9641 119.893,105.216 119.839,113.716 119.784,110.141 119.729,94.3878 119.674,71.4377 119.619,49.647 121.208,37.2856 121.154,35.762 121.099,43.4567 121.044,56.556 120.989,71.936 120.934,88.5329 120.88,104.574 120.825,113.505 120.77,111.138 120.715,96.8314 120.66,74.7053 120.606,52.5601 122.195,38.675 122.14,35.4553 122.085,42.3547 122.03,55.7798 121.975,71.8114 121.921,88.6096 121.866,104.354 121.811,113.246 121.756,111.588 121.701,98.5562 121.647,77.4555 121.592,55.3582 123.181,40.237 123.126,35.2924 123.071,41.1378 123.016,54.7833 122.962,71.7635 122.907,89.2516 122.852,104.833 122.797,113.332 122.743,111.838 122.688,99.639 122.633,79.5349 122.578,57.8209 124.167,41.8564 124.112,35.2924 124.057,39.8345 124.003,53.4609 123.948,71.5718 123.893,89.1078 123.838,102.255 123.784,108.436 123.729,106.04 123.674,95.1161 123.619,77.973 123.564,58.9804 125.153,43.4376 125.098,35.9344 125.044,38.9817 124.989,51.7456 124.934,70.0578 124.879,88.1783 124.824,101.211 124.77,106.462 124.715,103.252 124.66,92.5384 124.605,76.6985 124.551,59.3733 126.139,44.712 126.085,36.7394 126.03,38.3013 125.975,49.762 125.92,67.9113 125.866,86.741 125.811,100.185 125.756,104.814 125.701,100.549 125.646,89.3953 125.592,74.3987 125.537,58.8079 127.126,46.2261 127.071,39.595 127.016,41.4061 126.961,52.5793 126.907,70.8436 126.852,92.3084 126.797,108.618 126.742,113.697 126.687,107.295 126.633,92.845 126.578,75.0407 126.523,58.645 128.112,47.2802 128.057,41.5019 128.002,43.1788 127.948,53.5759 127.893,71.4856 127.838,91.8005 127.783,106.874 127.728,110.774 127.674,102.964 127.619,87.7375 127.564,70.9202 127.509,56.7956 129.098,47.3185 129.043,43.1501 128.989,45.1145 128.934,54.3616 128.879,70.6519 128.824,92.2605 128.769,110.228 128.715,116.15 128.66,107.89 128.605,89.884 128.55,69.5212 129.81,93.5062 129.756,111.723 129.701,118.191 129.646,109.48 129.591,89.5103 129.537,66.7422 129.482,49.6375 131.071,41.9044 131.016,41.8469 130.961,47.7784 130.906,58.8367 130.851,74.5807 130.797,92.8642 130.742,108.273 130.687,113.697 130.632,105.044 130.577,85.2269 130.523,62.6505 130.468,45.5936 132.057,38.0905 132.002,39.5758 131.947,47.491 131.892,59.7566 131.838,75.2515 131.783,94.522 131.728,111.109 131.673,117.76 131.619,109.682 131.564,88.5808 131.509,62.6218 131.454,42.4601 133.043,33.9413 132.988,36.1932 132.933,46.2261 132.879,60.7723 132.824,77.5897 132.769,96.8026 132.714,112.547 132.66,118.66 132.605,110.726 132.55,89.5966 132.495,62.5547 132.44,40.6011 134.029,30.6066 133.975,32.7626 133.92,44.2233 133.865,60.8682 133.81,79.2283 133.755,96.4001 133.701,109.097 133.646,113.237 133.591,105.523 133.536,86.3768 133.481,61.606 133.427,40.0741 135.016,28.8913 134.961,30.2424 134.906,41.799 134.851,59.1912 134.796,78.2988 134.742,97.8279 134.687,111.981 134.632,116.562 134.577,108.905 134.523,89.4624 134.468,63.4938 134.413,41.2048 136.002,29.907 135.947,31.6415 135.892,44.5012 135.837,63.8387 135.783,84.6232 135.728,104.574 135.673,117.53 135.618,120.069 135.563,110.822 135.509,91.0723 135.454,65.6594 135.399,43.4855 136.988,31.3636 136.933,32.0631 136.878,44.53 136.824,64.4233 136.769,86.1373 136.714,104.334 136.659,114.942 136.604,115.565 136.55,105.916 136.495,87.9196 136.44,65.8223 136.385,45.6703 137.974,33.5867 137.92,33.3184 137.865,44.6258 137.81,63.8387 137.755,85.4377 137.7,103.673 137.646,114.003 137.591,114.022 137.536,104.009 137.481,86.5972 137.426,65.9661 137.371,47.2802 138.961,35.6949 138.906,34.7462 138.851,44.8845 138.796,63.1967 138.741,84.4795 138.687,102.744 138.632,112.94 138.577,112.508 138.522,102.035 138.467,84.8149 138.413,65.3432 138.358,48.133 139.947,37.3527 139.892,36.0303 139.837,45.0762 139.782,62.3822 139.728,83.205 139.673,101.498 139.618,111.771 139.563,111.061 139.508,100.118 139.454,82.7834 139.399,64.04 139.344,48.2192 140.933,38.7038 140.878,37.8414 140.823,46.5231 140.768,63.3117 140.714,84.2208 140.659,105.523 140.604,118.354 140.549,118.43 140.495,106.203 140.44,86.1948 140.385,64.7012 140.33,48.4109 141.919,39.0392 141.864,38.0139 141.81,46.2357 141.755,62.7943 141.7,84.0291 141.645,103.788 141.59,115.508 141.536,115.019 141.481,102.696 141.426,83.2529 141.371,63.2446 141.316,47.8264 142.905,39.3362 142.851,38.5792 142.796,46.0728 142.741,61.4623 142.686,82.333 142.631,105.091 142.577,119.877 142.522,121.152 142.467,108.455 142.412,86.6643 142.358,63.4267 142.303,46.7723 143.892,38.1097 143.837,37.4868 143.782,44.8654 143.727,60.0824 143.672,81.3556 143.618,105.302 143.563,121.679 143.508,124.18 143.453,111.588 143.399,88.6479 143.344,63.6183 143.289,45.517 144.878,36.3369 144.823,35.829 144.768,43.2555 144.713,58.3096 144.659,79.2283 144.604,101.182 144.549,116.868 144.494,119.973 144.44,108.695 144.385,87.0859 144.33,63.168 144.275,44.6162 145.864,35.2445 145.809,34.8133 145.754,41.8948 145.7,55.799 145.645,76.0948 145.59,100.492 145.535,119.159 145.481,124.774 145.426,114.396 145.371,91.4747 145.316,64.4904 145.261,43.8592 146.85,33.1555 146.796,32.4943 146.741,39.8633 146.686,53.9017 146.631,74.1879 146.576,98.9108 146.522,118.66 146.467,125.895 146.412,116.868 146.357,94.1674 146.303,66.0523 146.248,43.4663 147.837,31.2869 147.782,30.5107 147.727,38.8188 147.672,53.7675 147.617,73.7375 147.563,95.691 147.508,113.831 147.453,121.324 147.398,114.166 147.343,93.9183 147.289,67.6238 147.234,44.3671 148.823,30.9995 148.768,29.4375 148.713,37.5635 148.658,52.2439 148.604,72.1755 148.549,95.921 148.494,115.699 148.439,124.755 148.384,118.612 148.33,98.1058 148.275,70.0865 148.22,45.3157 149.809,30.0125 149.754,27.3293 149.699,35.7428 149.645,51.5444 149.59,72.3864 149.535,96.1223 149.48,115.632 149.426,124.899 149.371,119.542 149.316,99.9457 149.261,72.118 149.206,46.3506 150.795,29.3033 150.74,25.2691 150.686,33.7496 150.631,50.8065 150.576,71.9072 150.521,93.0079 150.467,110.017 150.412,118.267 150.357,114.147 150.302,97.5596 150.247,72.8751 150.193,47.8168 151.781,30.3191 151.727,25.3937 151.672,33.5197 151.617,51.1611 151.562,72.923 151.507,93.7458 151.453,109.519 151.398,116.514 151.343,112.202 151.288,96.6589 151.234,73.5938 151.179,49.532 152.768,31.6606 152.713,25.2883 152.658,32.0631 152.603,49.3883 152.548,71.6677 152.494,92.7492 152.439,107.842 152.384,113.859 152.329,109.279 152.275,94.6753 152.22,73.335 152.165,50.8448 153.754,33.8646 153.699,27.5497 153.644,34.1713 153.59,51.9468 153.535,76.4302 153.48,100.473 153.425,116.389 153.37,120.845 153.316,113.524 153.261,96.496 153.206,74.2837 153.151,52.953 154.74,36.5956 154.685,29.7921 154.631,35.2445 154.576,52.3397 154.521,76.2481 154.466,99.2366 154.411,114.089 154.357,117.261 154.302,109.241 154.247,93.1517 154.192,73.1913 154.137,53.7196 155.726,38.8188 155.672,32.1398 155.617,36.3561 155.562,51.8223 155.507,76.1523 155.452,101.632 155.398,118.354 155.343,121.382 155.288,111.291 155.233,92.5671 155.178,71.3898 155.124,53.1255 156.713,39.9304 156.658,34.3438 156.603,38.4642 156.548,53.0105 156.493,76.7847 156.439,102.533 156.384,119.916 156.329,122.695 156.274,111.081 156.22,90.5452 156.165,68.5917 156.11,51.1132 157.699,39.7675 157.644,35.9728 157.589,40.8024 157.534,54.8503 157.48,76.411 157.425,99.7636 157.37,116.255 157.315,118.967 157.261,107.248 157.206,86.7122 157.151,65.0461 157.096,48.1234 158.685,38.493 158.63,36.5669 158.575,42.3068 158.521,55.799 158.466,77.3118 158.411,101.565 158.356,119.322 158.302,122.81 158.247,110.141 158.192,86.7793 158.137,62.478 158.082,44.8845 159.671,36.1453 159.617,36.1453 159.562,43.7155 159.507,57.9167 159.452,79.0175 159.397,102.351 159.343,119.82 159.288,123.739 159.233,111.234 159.178,86.923 159.123,60.9832 159.069,42.1343 160.658,33.4717 160.603,34.8612 160.548,44.2137 160.493,59.5745 160.438,79.1037 160.384,99.5528 160.329,115.201 160.274,119.369 160.219,108.599 160.164,86.0702 160.11,60.3986 160.055,40.4957 161.644,31.2869 161.589,33.0405 161.534,43.313 161.479,59.2583 161.425,80.129 161.37,101.565 161.315,117.625 161.26,122.235 161.206,111.723 161.151,88.4179 161.096,61.3665 161.041,40.0741 162.63,29.7441 162.575,31.3636 162.52,42.5081 162.466,59.6129 162.411,79.3528 162.356,98.4125 162.301,112.547 162.246,116.955 162.192,108.378 162.137,88.0634 162.082,62.5355 162.027,40.9749 163.616,30.3191 163.561,32.3027 163.507,44.53 163.452,62.9092 163.397,85.0257 163.342,105.465 163.287,119.331 163.233,122.58 163.178,112.834 163.123,91.4556 163.068,65.6115 163.013,43.658 164.603,31.9002 164.548,32.9639 164.493,45.0762 164.438,64.0016 164.383,84.9107 164.328,103.367 164.274,115.489 164.219,118.143 164.164,109.739 164.109,91.3981 164.055,67.8634 164,46.4465 165.589,33.9892 165.534,33.8263 165.479,44.9995 165.424,63.5225 165.37,84.3453 165.315,102.562 165.26,114.099 165.205,116.274 165.15,108.167 165.096,91.1873 165.041,69.3679 164.986,48.8804 166.575,36.0782 166.52,34.775 166.465,44.8366 166.41,62.7847 166.356,83.4925 166.301,101.613 166.246,112.786 166.191,114.444 166.137,106.328 166.082,90.2673 166.027,69.9907 165.972,50.6628 167.561,37.8701 167.506,35.5703 167.451,44.4341 167.397,61.6827 167.342,82.3043 167.287,100.521 167.232,111.56 167.178,112.796 167.123,104.43 167.068,88.8683 167.013,69.8278 166.958,51.6977 168.547,39.1254 168.493,36.0015 168.438,43.6484 168.383,60.2261 168.328,83.3967 168.273,104.478 168.219,117.079 168.164,117.932 168.109,107.506 168.054,89.3378 168,69.7128 167.945,51.7935 169.534,39.2404 169.479,35.647 169.424,42.8051 169.369,59.4308 169.314,80.934 169.26,100.827 169.205,112.997 169.15,113.974 169.095,104.258 169.041,87.5172 168.986,68.5917 168.931,51.4869 170.52,39.3458 170.465,35.1966 170.41,41.1186 170.355,56.9202 170.301,81.0106 170.246,104.028 170.191,118.335 170.136,119.494 170.081,107.861 170.027,87.9963 169.972,67.6909 169.917,50.2795 171.506,38.2726 171.451,33.97 171.396,39.4896 171.342,55.2145 171.287,80.0811 171.232,104.526 171.177,120.299 171.123,122.12 171.068,109.902 171.013,88.5904 170.958,66.8668 170.903,48.7463 172.492,36.7298 172.438,32.4464 172.383,37.6114 172.328,52.7997 172.273,75.3186 172.218,98.7191 172.164,115.067 172.109,118.517 172.054,108.1 171.999,88.2742 171.944,66.1002 171.89,47.7305 173.479,36.3082 173.424,32.6668 173.369,37.7743 173.314,52.7422 173.259,77.7047 173.205,103.836 173.15,122.359 173.095,126.461 173.04,114.588 172.985,91.5226 172.931,67.1735 172.876,47.3472 174.465,35.4362 174.41,31.996 174.355,37.161 174.3,51.8414 174.246,76.641 174.191,103.386 174.136,123.385 174.081,129.134 174.026,118.162 173.972,94.6753 173.917,68.7546 173.862,47.1843 175.451,34.4779 175.396,31.2678 175.341,36.8352 175.287,50.9694 175.232,72.5205 175.177,97.1284 175.122,117.194 175.067,125.148 175.013,117.405 174.958,96.6397 174.903,70.5369 174.848,47.8168 176.437,34.1042 176.383,30.597 176.328,36.0494 176.273,50.0208 176.218,73.1817 176.163,99.0545 176.109,120.347 176.054,129.278 175.999,121.679 175.944,99.8307 175.889,72.808 175.834,48.3151 177.423,33.1364 177.369,29.4662 177.314,35.9057 177.259,50.8736 177.204,74.0633 177.149,99.3611 177.095,120.414 177.04,129.939 176.985,123.432 176.93,102.399 176.876,75.0599 176.821,49.1296 178.41,32.3602 178.355,28.2014 178.3,35.532 178.245,51.1802 178.19,71.9743 178.136,94.5986 178.081,114.07 178.026,124.257 177.971,120.625 177.917,103.098 177.862,76.9476 177.807,50.9215 179.396,33.3951 179.341,28.7955 179.286,36.7873 179.231,53.6717 179.177,74.9832 179.122,96.726 179.067,114.617 179.012,123.787 178.958,120.414 178.903,104.172 178.848,79.3912 178.793,53.6429 180.382,34.9762 180.327,28.7476 180.273,35.8386 180.218,52.9626 180.163,74.7341 180.108,96.1414 180.053,112.978 179.999,121.382 179.944,118.45 179.889,103.855 179.834,80.934 179.779,56.1057 181.368,36.8256 181.314,28.9871 181.259,34.6983 181.204,51.5444 181.149,73.8525 181.094,95.3748 181.04,111.368 180.985,118.737 180.93,115.661 180.875,102.255 180.82,81.2693 180.766,57.9551 182.355,38.7996 182.3,29.6962 182.245,33.7305 182.19,50.6819 182.135,75.8648 182.081,99.6678 182.026,115.843 181.971,121.296 181.916,115.556 181.861,100.616 181.807,80.4548 181.752,58.4534 183.341,40.0933 183.286,30.7599 183.231,34.0084 183.176,49.647 183.122,72.8846 183.067,95.8348 183.012,111.445 182.957,116.361 182.903,110.784 182.848,96.9751 182.793,78.155 182.738,58.1659 184.327,41.3486 184.272,32.1589 184.217,34.1713 184.163,49.3883 184.108,74.3987 184.053,99.3132 183.998,115.661 183.944,119.044 183.889,110.276 183.834,93.8224 183.779,74.8395 183.724,56.1152 185.313,41.1378 185.258,33.2801 185.204,35.5224 185.149,50.3274 185.094,74.9832 185.039,100.243 184.985,117.012 184.93,119.801 184.875,109.231 184.82,90.9094 184.765,71.1023 184.711,53.1063 186.3,39.9495 186.245,33.8455 186.19,36.931 186.135,50.2411 186.08,71.8114 186.026,95.3844 185.971,112.24 185.916,116.016 185.861,106.328 185.806,88.0921 185.752,67.7197 185.697,50.2316 187.286,38.3876 187.231,33.6155 187.176,37.0939 187.121,51.0461 187.067,73.7854 187.012,98.2687 186.957,115.939 186.902,119.609 186.847,108.072 186.793,87.2584 186.738,65.1324 186.683,46.9256 188.272,35.7811 188.217,32.5901 188.162,37.5443 188.108,52.1768 188.053,74.5903 187.998,98.6041 187.943,116.466 187.888,120.797 187.834,109.337 187.779,87.5363 187.724,63.7142 187.669,44.2712 189.258,33.1364 189.203,31.0761 189.149,37.4485 189.094,53.0009 189.039,75.2994 188.984,98.7862 188.929,116.562 188.875,121.554 188.82,110.726 188.765,88.5904 188.71,63.4075 188.655,42.5176 190.244,30.8174 190.19,29.3417 190.135,36.9214 190.08,53.4992 190.025,75.8936 189.97,98.8437 189.916,116.274 189.861,121.717 189.806,111.723 189.751,89.884 189.697,63.8579 189.642,41.636 191.231,29.0159 191.176,27.6456 191.121,36.1453 191.066,51.9373 191.011,72.1468 190.957,93.1133 190.902,109.806 190.847,116.562 190.792,109.662 190.738,90.2482 190.683,64.797 190.628,42.4889 192.217,30.4053 192.162,30.5299 192.107,41.1665 192.053,58.8271 191.998,79.7074 191.943,99.8307 191.888,114.732 191.833,119.896 191.779,112.441 191.724,93.3242 191.669,68.3138 191.614,45.7661 193.203,32.6572 193.148,31.7565 193.093,41.8085 193.039,59.2775 192.984,79.8895 192.929,99.3899 192.874,113.62 192.82,118.718 192.765,112.288 192.71,94.9053 192.655,71.246 192.6,48.8421 194.189,34.842 194.135,32.8201 194.08,42.1631 194.025,59.3829 193.97,79.8895 193.915,99.0353 193.861,112.652 193.806,117.453 193.751,111.588 193.696,95.6623 193.641,73.4021 193.587,51.4485 195.176,36.7585 195.121,33.5867 195.066,42.0864 195.011,59.0667 194.956,79.6307 194.902,98.7191 194.847,111.933 194.792,116.313 194.737,110.63 194.683,95.7102 194.628,74.7724 194.573,53.4321 196.162,38.2343 196.107,33.9221 196.052,41.454 195.997,58.1467 195.943,78.9695 195.888,98.3358 195.833,111.464 195.778,115.45 195.724,109.634 195.669,95.2886 195.614,75.4144 195.559,54.7545 197.148,39.1733 197.093,33.7209 197.038,40.1987 196.984,56.5369 196.929,77.7526 196.874,97.7321 196.819,111.176 196.764,114.99 196.71,108.857 196.655,94.6657 196.6,75.4911 196.545,55.4253 198.134,39.5758 198.08,32.9926 198.025,38.2534 197.97,54.1221 197.915,75.7977 197.86,96.7547 197.806,110.985 197.751,114.942 197.696,108.484 197.641,94.0716 197.586,75.194 197.531,55.5594 199.121,39.4896 199.066,31.8044 199.011,35.8578 198.956,53.8346 198.901,78.73 198.847,102.418 198.792,117.721 198.737,120.462 198.682,110.985 198.627,94.7903 198.573,74.9353 198.518,55.0707 200.107,38.9817 200.052,30.9036 199.997,34.3246 199.942,49.6375 199.888,72.8367 199.833,96.8026 199.778,113.85 199.723,118.9 199.668,111.435 199.614,94.9532 199.559,74.5807 199.504,54.6587 201.093,38.4642 201.038,29.5621 200.983,31.7565 200.928,48.7942 200.874,74.6095 200.819,101.143 200.764,119.734 200.709,124.419 200.655,114.588 200.6,96.3331 200.545,74.3891 200.49,53.7388 202.079,37.7264 202.024,29.035 201.97,30.9995 201.915,47.6826 201.86,73.7087 201.805,101.373 201.75,121.621 201.696,127.495 201.641,117.673 201.586,98.1825 201.531,74.4849 201.476,52.7997 203.065,36.9023 203.011,28.7955 202.956,30.5491 202.901,43.7634 202.846,66.886 202.791,93.9087 202.737,116.006 202.682,125.349 202.627,118.919 202.572,99.7444 202.518,75.0407 202.463,52.2535 204.052,35.9536 203.997,27.9043 203.942,29.6579 203.887,44.7216 203.832,69.1091 203.778,97.0326 203.723,119.781 203.668,129.153 203.613,121.765 203.559,102.083 203.504,75.8648 203.449,51.4677 205.038,34.6791 204.983,27.5018 204.928,30.5107 204.873,45.9003 204.819,69.6074 204.764,96.8314 204.709,119.705 204.654,130.054 204.6,123.758 204.545,104.287 204.49,77.0243 204.435,50.9982 206.024,33.3184 205.969,26.7448 205.914,30.7216 205.86,43.8688 205.805,64.6628 205.75,89.7403 205.695,112.652 205.641,125.598 205.586,123.164 205.531,105.475 205.476,78.4904 205.421,51.4965 207.01,32.8201 206.956,26.3136 206.901,32.1206 206.846,49.532 206.791,72.5972 206.736,97.368 206.682,118.315 206.627,128.894 206.572,124.822 206.517,107.554 206.463,80.6656 206.408,52.8859 207.997,32.9255 207.942,25.9111 207.887,31.996 207.832,47.7689 207.777,69.0133 207.723,91.8772 207.668,111.981 207.613,123.825 207.558,122.762 207.503,107.679 207.449,82.4672 207.394,54.8791 208.983,33.6538 208.928,24.9337 208.873,30.1466 208.818,46.1686 208.764,67.7197 208.709,89.9607 208.654,108.762 208.599,119.868 208.544,119.494 208.49,106.366 208.435,83.2338 208.38,56.6806 209.969,34.842 209.914,24.445 209.859,28.2493 209.805,43.955 209.75,65.8415 209.695,87.8717 209.64,105.571 209.586,115.584 209.531,115.805 209.476,106.136 209.421,86.7314 209.366,62.478 210.955,40.3999 210.901,27.3773 210.846,28.4888 210.791,44.5108 210.736,67.3651 210.681,89.7882 210.627,106.366 210.572,114.195 210.517,112.039 210.462,100.003 210.407,80.2632 211.941,37.6306 211.887,27.2623 211.832,30.0604 211.777,45.6415 211.722,68.7354 211.667,91.5418 211.613,107.554 211.558,113.745 211.503,110.544 211.448,99.9457 211.394,82.6876 211.339,62.248 212.928,43.4663 212.873,31.6894 212.818,32.4752 212.763,47.7305 212.709,70.9586 212.654,94.2249 212.599,110.036 212.544,114.703 212.489,108.627 212.435,94.4549 212.38,75.6923 212.325,56.1344 213.914,39.8824 213.859,31.0474 213.804,33.0597 213.75,46.8202 213.695,69.1091 213.64,92.5863 213.585,109.116 213.53,113.955 213.476,108.052 213.421,95.0969 213.366,77.7526 214.9,44.0029 214.845,34.3725 214.791,35.3787 214.736,49.0529 214.681,71.0352 214.626,94.6945 214.571,111.675 214.462,108.148 214.407,91.3502 214.352,71.3131 214.297,52.7997 215.886,39.1254 215.832,32.6668 215.777,35.3307 215.722,47.9605 215.667,68.8121 215.503,116.313 215.448,109.662 215.339,74.8491 215.284,56.374 216.873,42.2781 216.818,34.6791 216.763,36.9023 216.708,49.877 216.653,70.374 216.599,93.5829 216.544,111.933 216.489,118.45 216.434,110.755 216.38,92.3276 216.325,70.0195 216.27,50.3082 217.859,37.1802 217.804,32.2835 217.749,36.0686 217.694,48.3821 217.64,67.8538 217.585,90.459 217.53,109.432 217.475,117.616 217.421,112.604 217.366,96.6876 217.311,75.1365 217.256,54.812 218.845,40.3137 218.79,33.6155 218.735,37.0939 218.681,50.0399 218.626,69.2625 218.571,91.1681 218.516,109.758 218.462,118.267 218.407,112.748 218.352,94.8574 218.297,71.1981 218.242,49.8291 219.831,36.4998 219.777,33.0693 219.722,38.9146 219.667,52.3876 219.612,71.3419 219.557,92.3947 219.503,110.333 219.448,119.063 219.393,115.632 219.338,100.329 219.283,77.8771 219.229,56.0194 220.818,40.9078 220.763,35.2158 220.708,40.8503 220.653,55.2049 220.598,74.2549 220.544,94.5028 220.489,111.368 220.434,119.561 220.379,115.163 220.324,98.4316 220.27,74.7053 220.215,52.1002 221.804,37.4197 221.749,33.673 221.694,40.237 221.639,54.5054 221.585,73.2584 221.53,92.8929 221.42,117.53 221.366,114.281 221.311,99.0545 221.256,76.1427 221.201,53.2021 222.79,37.5347 222.735,32.8776 222.68,39.0967 222.626,53.4513 222.571,72.2234 222.516,91.5226 222.461,107.276 222.406,115.45 222.352,112.882 222.297,98.8916 222.242,76.8806 222.187,53.7867 223.776,37.1418 223.721,31.4977 223.667,37.2856 223.612,51.8414 223.557,70.9681 223.502,90.3344 223.447,105.734 223.393,113.591 223.338,112.93 223.283,101.757 223.173,58.6929 224.763,40.0933 224.708,31.4977 224.653,36.9023 224.598,52.6272 224.543,72.9996 224.489,92.8738 224.324,110.755 224.269,97.2338 224.215,76.2002 224.16,53.2213 225.749,35.762 225.694,29.4854 225.639,36.0015 225.584,52.7518 225.53,74.5328 225.475,95.4036 225.42,110.304 225.365,116.016 225.31,113.198 225.256,101.038 225.201,81.2214 225.146,58.3096 226.735,38.9625 226.68,29.5142 226.625,35.4553 226.571,53.1926 226.516,76.4781 226.461,98.6041 226.406,113.735 226.351,118.478 226.297,112.384 226.242,97.1572 226.187,75.9606 226.132,53.2213 227.721,34.89 227.666,26.8885 227.611,32.3506 227.557,49.877 227.502,74.1304 227.447,97.8184 227.392,114.233 227.338,119.446 227.283,114.779 227.228,100.846 227.173,80.5602 227.118,57.8593 228.707,37.9468 228.653,26.8598 228.598,31.4307 228.543,49.2637 228.488,74.7053 228.433,99.9744 228.324,122.474 228.269,114.636 228.214,97.2338 228.16,75.012 228.105,52.5122 229.694,34.2 229.639,24.9337 229.584,28.5463 229.529,45.3828 229.474,71.1215 229.42,97.9142 229.365,117.338 229.31,123.777 229.255,117.961 229.201,101.546 229.146,79.5062 229.091,56.7285 230.68,37.3239 230.625,25.7195 230.57,28.6134 230.515,44.9708 230.461,70.8436 230.406,98.652 230.351,119.427 230.296,126.461 230.242,118.21 230.187,98.4604 230.132,73.9675 230.077,51.0173 231.666,33.6826 231.611,24.8379 231.556,27.1185 231.502,41.9427 231.447,66.9339 231.392,95.2886 231.337,117.855 231.283,127.093 231.228,121.89 231.173,103.53 231.118,78.73 231.063,54.6587 232.652,36.1261 232.598,25.959 232.543,28.6517 232.488,42.9584 232.433,67.001 232.378,95.0203 232.324,118.21 232.269,128.3 232.214,121.602 232.159,100.846 232.104,73.6417 232.05,48.8421 233.639,32.5231 233.584,26.5244 233.529,30.7407 233.474,44.9516 233.419,67.8826 233.365,95.0011 233.31,118.363 233.255,129.91 233.2,126.48 233.146,107.679 233.091,80.3686 233.036,53.7484 234.625,35.0337 234.57,27.521 234.515,33.1555 234.46,47.8647 234.406,69.7512 234.351,95.2598 234.296,117.807 234.241,129.536 234.186,125.272 234.132,105.638 234.077,77.283 234.022,49.8387 235.611,31.6127 235.556,26.1411 235.501,32.3506 235.447,47.2514 235.392,68.1413 235.337,92.0593 235.282,113.745 235.227,126.288 235.173,124.189 235.118,106.845 235.063,79.5541 235.008,51.4485 236.597,31.4977 236.543,24.7037 236.488,30.7599 236.433,45.9673 236.378,66.4164 236.323,88.8875 236.269,109.26 236.214,121.861 236.159,121.487 236.104,106.653 236.049,81.2406 235.994,53.3842 237.583,32.1206 237.529,23.5826 237.474,28.7476 237.419,44.0317 237.364,64.4424 237.31,85.8881 237.255,104.833 237.2,117.357 237.145,120.021 237.09,109.03 237.036,86.5972 236.981,59.4308 238.57,36.1453 238.515,24.5121 238.46,29.2075 238.405,44.9133 238.35,65.7936 238.296,86.5685 238.241,103.577 238.186,113.553 238.131,113.428 238.077,101.805 238.022,80.7902 237.967,56.1057 239.556,35.6757 239.501,26.1028 239.446,30.3095 239.391,46.1686 239.337,67.8155 239.282,88.8395 239.227,104.766 239.172,113.553 239.118,114.166 239.063,104.172 239.008,85.179 240.542,40.5724 240.487,28.9967 240.433,32.6093 240.378,48.0563 240.323,69.9428 240.268,91.1585 240.213,106.299 240.159,112.652 240.104,109.499 240.049,97.483 239.994,78.8929 241.528,39.8154 241.474,30.1083 241.419,32.3506 241.364,46.5231 241.309,68.1892 241.254,90.1715 241.2,105.925 241.145,112.844 241.09,110.985 241.035,100.003 240.981,82.3809 240.926,61.8456 242.515,43.1309 242.46,32.3123 242.405,34.4875 242.35,48.0851 242.295,69.5883 242.241,92.0401 242.186,108.177 242.131,113.735 242.076,108.426 242.021,94.6465 241.967,76.1714 241.912,57.0352 243.501,41.2144 243.446,32.4656 243.391,33.7688 243.336,46.1398 243.282,67.0585 243.227,90.1907 243.172,107.794 243.117,115.306 243.063,111.991 243.008,98.9587 242.953,80.3398 244.487,43.3705 244.432,33.8167 244.377,35.4362 244.323,47.3664 244.268,67.6909 244.213,90.8998 244.158,109.164 244.104,116.274 244.049,110.544 243.994,95.0203 243.939,75.0407 243.884,55.7607 245.473,40.9557 245.419,33.1843 245.364,34.2671 245.309,45.1432 245.254,64.5862 245.199,87.8717 245.145,107.468 245.09,117.367 245.035,114.684 244.98,100.425 244.925,80.0524 244.871,59.3254 246.46,42.5656 246.405,34.0084 246.35,35.647 246.295,46.3027 246.24,64.9216 246.186,87.5459 246.131,107.276 246.076,116.84 246.021,112.643 245.966,96.726 245.912,75.2515 245.857,55.042 247.446,40.9078 247.391,34.8229 247.336,37.2856 247.281,48.1713 247.227,66.3685 247.172,88.4371 247.117,108.196 247.062,119.657 247.007,118.095 246.953,103.453 246.898,81.5664 246.843,59.6895 248.432,43.2076 248.377,36.404 248.322,39.6716 248.268,50.7394 248.213,68.2563 248.158,89.1941 248.049,118.526 247.994,115.632 247.939,100.042 247.829,56.1536 249.418,41.4252 249.363,35.7811 249.309,38.9913 249.254,49.9058 249.199,66.8572 249.144,87.0668 249.089,105.801 249.035,116.888 248.98,115.354 248.925,100.827 248.87,78.4713 248.815,56.2111 250.404,40.5916 250.35,34.5258 250.295,37.8222 250.24,48.8804 250.185,65.6498 250.13,85.294 250.076,103.597 250.021,114.923 249.966,114.425 249.911,100.923 249.857,78.7491 249.802,55.7511 251.391,39.1446 251.336,34.3725 251.281,40.6011 251.226,53.8825 251.171,71.131 251.117,89.2228 251.062,104.478 251.007,114.166 250.952,113.38 250.898,100.166 250.843,78.155 250.788,54.9462 252.377,38.5792 252.322,33.1651 252.267,38.675 252.213,52.4355 252.158,70.8244 252.103,90.1523 252.048,106.471 251.993,115.699 251.939,114.233 251.884,100.904 251.829,78.7587 251.774,54.9462 253.363,37.4197 253.308,33.1843 253.253,41.4252 253.199,57.6293 253.144,77.1968 253.089,95.6623 253.034,109.279 252.98,116.581 252.925,114.089 252.87,100.569 252.815,78.6629 252.76,54.8312 254.349,36.931 254.295,30.5107 254.24,36.6148 254.185,52.4451 254.13,73.2104 254.075,93.717 254.021,109.356 253.966,116.725 253.911,113.802 253.856,100.329 253.801,78.6821 253.747,54.5724 255.336,35.5991 255.281,30.1274 255.226,38.3492 255.171,56.326 255.116,78.4904 255.062,98.8437 255.007,112.508 254.952,118.306 254.897,113.907 254.843,99.6486 254.788,78.1646 254.733,54.4479 256.322,35.3882 256.267,27.2623 256.212,32.686 256.157,49.8099 256.103,73.2871 256.048,96.3522 255.993,112.911 255.938,119.12 255.884,114.07 255.829,99.2653 255.774,77.8005 255.719,54.2371 257.308,34.6504 257.253,27.6168 257.198,34.4108 257.144,52.7518 257.089,77.168 257.034,100.358 256.979,115.728 256.924,121.104 256.87,114.636 256.815,98.537 256.76,76.8422 256.705,54.0454 258.294,35.1774 258.24,25.6237 258.185,29.15 258.13,45.6895 258.075,70.7286 258.02,96.678 257.966,115.604 257.911,122.129 257.856,115.306 257.801,98.2304 257.746,75.9798 257.691,53.413 259.281,34.9283 259.226,27.3485 259.171,32.0152 259.116,48.6313 259.061,73.4021 259.007,98.9299 258.952,117.127 258.897,123.873 258.842,116.322 258.787,97.8471 258.678,52.6559 260.267,36.0686 260.212,27.7606 260.157,30.4532 260.102,45.3636 260.048,69.9716 259.993,97.4638 259.938,118.881 259.883,126.949 259.828,119.302 259.774,99.4761 259.719,74.7053 259.664,52.081 261.253,36.0207 261.198,30.8653 261.143,35.4841 261.089,50.0878 261.034,73.0188 260.979,98.7191 260.924,119.111 260.869,128.233 262.02,66.4356 261.965,92.6342 261.91,115.728 261.856,127.237 261.801,122.359 261.746,102.801 261.691,75.9606 261.636,51.0173 263.226,34.5067 263.171,28.3738 263.116,31.5936 263.061,43.2747 263.006,62.9284 262.951,87.728 262.897,111.042 262.842,124.487 262.787,122.215 262.732,104.459 262.678,77.6472 262.623,51.2569 264.212,33.1555 264.157,26.4094 264.102,29.8687 264.047,41.3102 263.992,59.5649 263.938,82.6205 263.883,105.36 263.828,120.069 263.773,120.395 263.719,105.159 263.664,79.4199 263.609,52.2535 265.198,32.686 265.143,27.5497 265.088,33.2513 265.033,45.9194 264.979,62.8422 264.924,82.3043 264.869,101.326 264.814,115.211 264.76,116.629 264.705,103.558 264.65,79.8224 264.595,53.595 266.184,34.0371 266.129,26.5723 266.074,31.2869 266.02,44.6162 265.965,62.5739 265.91,82.4672 265.855,101.182 265.801,113.831 265.746,115.354 265.691,103.673 265.636,81.576 265.581,56.1631 267.17,36.2603 267.116,30.0604 267.061,35.9057 267.006,50.0974 266.951,67.7388 266.896,85.1694 266.842,100.291 266.787,110.937 266.732,111.885 266.677,101.345 266.623,81.4323 266.568,57.9838 268.157,38.4451 268.102,28.9488 268.047,31.881 267.992,45.1241 267.937,63.7908 267.883,82.9942 267.828,99.0737 267.773,108.838 267.718,109.452 267.663,99.639 267.609,81.1639 267.554,58.9037 269.143,40.0741 269.088,32.5231 269.033,36.3369 268.978,49.9058 268.924,68.4767 268.869,86.4535 268.814,100.358 268.759,108.378 268.704,107.42 268.65,97.2051 268.595,79.7074 268.54,59.1241 270.129,41.0419 270.074,30.8078 270.019,31.8619 269.965,44.1275 269.91,63.7142 269.855,84.4124 269.8,100.54 269.746,108.484 269.691,106.864 269.636,96.1893 269.581,78.845 269.526,58.7696 271.115,41.6648 271.061,33.8934 271.006,36.0015 270.951,48.1713 270.896,67.1447 270.841,86.923 270.787,102.13 270.732,109.404 270.677,106.471 270.622,94.7711 270.567,77.3788 270.513,58.2426 272.102,41.5498 272.047,31.4307 271.992,31.0953 271.937,41.799 271.882,61.2706 271.828,83.6746 271.773,101.709 271.718,110.036 271.663,107.056 271.608,94.7136 271.554,76.7368 271.499,57.4089 273.088,41.6648 273.033,34.2 272.978,35.1199 272.923,45.4499 272.868,63.5704 272.814,84.4603 272.759,101.968 272.704,110.534 272.649,107.065 272.595,93.8895 272.54,75.5103 272.485,56.8627 274.074,42.0193 274.019,33.7017 273.964,33.9892 273.91,44.0796 273.855,62.8805 273.8,85.7156 273.745,105.12 273.69,114.214 273.636,110.352 273.581,95.9689 273.526,76.4589 273.471,57.2651 274.731,104.785 274.677,114.617 274.622,111.291 274.567,96.8218 274.512,77.0243 274.457,57.9551 276.046,43.658 275.992,36.0686 275.937,36.1644 275.882,44.6641 275.827,61.2036 275.772,82.7067 275.718,102.84 275.663,114.07 275.608,111.933 275.553,97.6842 275.499,77.3022 275.444,57.4855 277.033,42.8243 276.978,35.2637 276.923,35.3882 276.868,43.5334 276.813,59.3254 276.704,100.549 276.649,112.844 276.594,111.866 276.54,98.0292 276.485,77.101 276.43,56.441 278.019,41.3007 277.964,33.8263 277.909,34.2671 277.854,42.4601 277.8,57.7922 277.745,78.0688 277.69,98.2208 277.635,111.157 277.581,111.176 277.526,97.7992 277.471,76.411 277.416,54.812 279.005,40.5916 278.95,36.2123 278.896,39.2213 278.841,48.2959 278.786,62.3343 278.731,79.5062 278.676,97.368 278.622,109.48 278.567,109.528 278.512,96.4289 278.457,74.9928 278.402,53.3459 279.991,38.5409 279.937,33.3184 279.882,37.1323 279.827,48.133 279.772,64.3466 279.717,83.2529 279.663,100.923 279.608,111.914 279.553,111.205 279.498,97.5405 279.443,75.2994 279.389,52.6272 280.978,38.6367 280.923,36.1261 280.868,42.4889 280.813,54.8599 280.758,70.5178 280.704,86.8368 280.649,102.255 280.594,111.79 280.539,110.515 280.484,97.0805 280.43,75.1557 280.375,52.4451 281.964,36.5669 281.909,31.5073 281.854,37.046 281.799,50.452 281.745,68.2563 281.69,86.9039 281.635,102.705 281.58,111.636 281.526,110.161 281.471,97.0134 281.416,75.1749 281.361,51.7935 282.95,36.6915 282.895,33.7017 282.84,41.1857 282.786,55.8948 282.731,73.6417 282.676,90.459 282.621,104.612 282.512,109.308 282.457,96.1223 282.402,74.9832 282.347,52.0331 283.936,34.8612 283.882,28.7476 283.827,34.7462 283.772,50.2124 283.717,70.4698 283.662,90.4015 283.607,105.446 283.498,108.924 283.443,95.624 283.388,74.8395 283.333,51.8702 284.923,35.9824 284.868,31.4498 284.813,38.4355 284.758,54.4 284.703,74.4658 284.648,93.1038 284.594,107.324 284.539,112.796 284.484,108.072 284.429,94.292 284.375,74.2549 284.32,52.5122 285.909,34.957 285.854,27.1664 285.799,31.8523 285.744,47.7018 285.69,69.962 285.635,92.088 285.58,107.89 285.525,113.4 285.47,107.861 285.416,93.3625 285.361,73.4308 285.306,52.2535 286.895,37.0652 286.84,31.009 286.785,35.8386 286.731,50.9694 286.676,72.2139 286.621,93.1613 286.566,109.068 286.511,114.099 286.457,107.343 286.402,91.7814 286.347,72.0031 286.292,52.4643 287.881,37.161 287.826,29.7537 287.771,33.3184 287.717,48.3821 287.662,71.4568 287.607,95.691 287.552,113.198 287.498,118.402 287.443,110.352 287.388,92.8259 287.333,71.8114 287.278,52.4643 288.867,40.4095 288.813,35.6661 288.758,39.3937 288.703,52.6272 288.648,73.2775 288.593,95.6431 288.539,113.812 288.484,119.829 288.429,111.742 288.374,93.3146 288.32,71.5335 288.265,52.5601 289.854,39.4608 289.799,33.1555 289.744,34.9379 289.689,46.4656 289.634,67.0106 289.58,91.561 289.525,111.847 289.47,120.251 289.415,113.601 289.361,95.0203 289.306,71.8785 289.251,51.6977 290.84,38.3972 290.785,32.4656 290.73,33.8167 290.675,43.6484 290.621,62.363 290.566,86.4056 290.511,108.12 290.456,119.12 290.402,114.827 290.347,97.0422 290.292,73.0188 290.237,51.2569 291.826,39.25 291.771,35.5224 291.716,37.9468 291.662,46.3794 291.607,61.6539 291.552,82.3043 291.497,103.692 291.443,116.226 291.388,114.262 291.333,98.2496 291.278,74.5903 291.223,52.1002 292.812,39.4608 292.758,35.9057 292.703,38.8667 292.648,46.7819 292.593,60.0632 292.538,78.3754 292.484,98.585 292.429,111.895 292.374,112.173 292.319,98.5562 292.264,76.1906 292.21,53.595 293.799,38.4642 293.744,33.558 293.689,37.2377 293.634,46.8202 293.579,61.2706 293.525,79.6978 293.47,98.5275 293.415,111.435 293.36,112.556 293.306,100.358 293.251,78.9025 293.196,56.2015 294.785,41.9714 294.73,37.6306 294.675,41.8756 294.62,51.5156 294.566,64.3562 294.401,108.426 294.346,110.189 294.292,99.9073 294.237,80.5315 294.182,58.7408 295.771,41.8469 295.716,34.6025 295.661,37.5347 295.607,48.0276 295.552,62.7943 295.497,79.487 295.442,95.4323 295.387,106.538 295.333,108.474 295.278,99.3324 295.223,81.2693 295.168,60.2357 296.757,45.1145 296.703,38.4834 296.648,41.4061 296.593,51.7935 296.538,66.014 296.483,81.3843 296.428,96.1127 296.374,105.657 296.319,106.749 296.264,98.0292 296.209,81.2693 296.154,61.2706 297.744,44.0988 297.689,34.9283 297.634,36.2794 297.524,63.8387 297.47,81.7389 297.415,96.8218 297.25,97.3201 297.196,80.934 297.141,61.6348 298.73,46.7052 298.675,38.493 298.565,49.6662 298.51,65.6019 298.456,83.0709 298.401,98.2017 298.346,106.318 298.291,105.657 298.237,96.3043 298.182,80.4069 298.127,61.721 299.716,44.9037 299.661,34.5546 299.606,34.0084 299.552,44.0317 299.497,61.9318 299.442,82.1414 299.387,98.6233 299.332,107.085 299.278,105.944 299.223,95.9498 299.168,79.7457 299.113,61.5294 300.647,37.9947 300.593,37.1131 300.538,45.7086 300.483,62.0276 300.428,81.7197 300.373,98.8629 300.319,107.363 300.264,105.609 300.209,95.049 300.154,78.8929 300.099,61.1365 301.688,45.8044 301.634,36.1836 301.579,35.2253 301.524,44.5012 301.469,62.5739 301.414,84.3166 301.36,102.418 301.305,110.994 301.25,108.225 301.195,96.2372 301.141,79.1612 302.675,49.12 302.565,40.0933 302.51,47.6347 302.455,63.2925 302.401,83.78 302.346,102.322 302.291,111.349 302.236,108.522 302.181,96.1606 302.127,79.0175 302.072,61.6731 303.661,47.3185 303.606,38.1863 303.551,36.3752 303.496,43.658 303.442,59.9482 303.387,81.4802 303.332,101.019 303.277,111.234 303.223,108.877 303.168,96.0743 303.113,78.2317 303.058,60.5328 304.647,46.3219 304.592,37.4868 304.537,35.6182 304.483,42.3068 304.428,57.8209 304.373,79.0654 304.318,99.1982 304.264,110.448 304.209,108.627 304.154,95.5186 304.099,76.8806 304.044,58.6642 305.633,44.5683 305.579,36.2603 305.524,34.7654 305.469,41.2527 305.414,56.0865 305.359,76.7943 305.305,97.0901 305.25,109.116 305.195,107.861 305.14,94.5028 305.085,75.0407 305.031,57.6676 306.62,47.376 306.565,42.9584 306.51,44.0508 306.455,50.7778 306.4,63.3884 306.346,81.5185 306.291,99.9457 306.126,94.5028 306.072,74.6287 306.017,56.1823 307.606,43.84 307.551,38.838 307.496,40.697 307.441,48.9379 307.387,63.1201 307.332,81.4514 307.277,99.3324 307.222,110.094 307.167,108.455 307.113,94.4357 307.058,73.8046 307.003,55.6169 308.592,45.5266 308.537,42.8243 308.482,46.2836 308.428,54.5245 308.373,66.7902 308.318,83.1188 308.263,99.4091 308.208,109.26 308.154,107.65 308.099,93.9854 308.044,73.4021 307.989,55.0899 309.578,45.1145 309.523,43.2267 309.469,47.9605 309.414,57.2747 309.359,69.6649 309.304,85.0544 309.249,99.7444 309.195,108.407 309.14,106.634 309.085,93.4871 309.03,73.2584 308.976,53.4609 310.564,40.6395 310.51,37.3718 310.455,42.7572 310.4,54.3329 310.345,69.4924 310.29,85.7156 310.236,99.7828 310.181,107.717 310.126,105.82 310.071,93.0654 310.017,72.923 309.962,53.9113 311.551,42.6039 311.496,40.3999 311.441,46.4944 311.386,58.118 311.331,72.2234 311.277,87.613 311.222,100.406 311.167,106.874 311.112,104.363 311.058,92.203 311.003,73.0859 310.948,53.1255 312.537,39.3171 312.482,35.7332 312.427,42.4889 312.373,56.7668 312.318,74.4466 312.263,91.3502 312.208,103.76 312.153,108.829 312.099,104.996 312.044,92.4138 311.989,73.6129 311.934,55.6649 313.523,42.9872 313.468,39.2404 313.413,45.2582 313.359,58.76 313.304,75.6061 313.249,92.4617 313.194,104.833 313.14,109.241 313.085,104.852 313.03,92.6342 312.975,75.079 312.92,56.2015 314.509,41.2527 314.455,35.0337 314.4,39.7675 314.345,54.055 314.29,73.6129 314.235,92.663 314.181,105.896 314.126,109.979 314.071,104.612 314.016,91.7622 313.961,74.5616 313.907,58.4534 315.496,45.402 315.441,38.9913 315.386,42.0385 315.331,54.3808 315.276,72.5493 315.222,92.1072 315.167,106.395 315.112,110.774 315.057,104.9 315.003,91.6089 314.948,74.8011 314.893,57.8688 316.482,43.8592 316.427,36.1453 316.372,38.1097 316.317,50.7394 316.263,71.1502 316.208,92.9696 316.153,108.877 316.098,113.735 316.044,106.893 315.934,74.1783 315.879,59.5937 317.468,47.9893 317.413,40.764 317.358,40.8024 317.304,50.3274 317.249,68.1221 317.194,90.2386 317.139,108.12 317.085,114.856 317.03,108.81 316.975,93.4679 316.92,74.9832 316.865,58.2426 318.454,45.2582 318.4,36.9214 318.345,35.5703 318.29,44.0317 318.235,62.363 318.126,105.868 318.071,115.115 318.016,110.467 317.961,94.819 317.906,74.897 317.852,56.9585 319.441,43.7442 319.386,35.532 319.331,33.4142 319.276,40.1028 319.221,56.8435 319.167,80.129 319.112,102.016 319.057,113.994 319.002,111.531 318.947,96.4481 318.893,75.4815 318.838,56.0673 320.427,42.6614 320.372,35.5799 320.317,34.5258 320.262,41.0707 320.208,56.7668 320.153,79.3049 320.098,101.613 320.043,115.057 319.988,114.118 319.934,99.5911 319.879,77.8005 319.824,59.2104 321.413,47.1268 321.358,41.2623 321.303,40.4095 321.249,44.9133 321.194,56.9106 321.139,77.1393 321.084,98.3837 321.029,112.528 320.975,113.553 320.92,101 320.865,80.1769 320.81,61.4144 322.399,48.7846 322.344,43.0638 322.29,42.9872 322.235,47.7305 322.18,58.5684 322.125,76.6027 322.07,96.0648 322.016,109.883 321.961,112.106 321.906,101.402 321.851,81.9018 321.796,60.9161 323.385,45.1624 323.331,37.8414 323.276,38.6271 323.221,45.8715 323.166,58.6929 323.112,76.0756 323.057,94.4836 323.002,107.957 322.947,110.831 322.892,101.306 322.838,82.6109 322.783,63.8579 324.372,49.4266 324.317,42.4026 324.262,43.083 324.207,49.7812 324.153,61.5102 324.098,77.9538 324.043,94.5699 323.988,106.519 323.933,109.078 323.879,100.425 323.824,82.9463 323.769,62.4109 325.358,45.3541 325.303,36.5286 325.248,37.5156 325.193,46.801 325.139,61.5581 325.084,78.7491 325.029,94.9724 324.974,106.069 324.92,108.129 324.865,99.5911 324.81,82.6205 324.755,64.7587 326.344,49.4075 326.289,40.7161 326.234,40.8024 326.18,48.9571 326.125,63.168 326.07,80.6082 326.015,96.0456 325.961,105.781 325.906,106.893 325.851,98.3933 325.796,82.1701 325.741,62.5547 327.33,45.0666 327.276,34.7175 327.221,34.5546 327.166,44.5491 327.111,61.4814 327.056,80.4548 327.002,96.5247 326.947,105.925 326.892,106.299 326.837,97.368 326.783,81.3364 326.728,64.567 328.317,49.12 328.262,38.9817 328.207,37.4197 328.152,45.3062 328.097,61.2036 328.043,80.6752 327.988,96.7834 327.933,105.475 327.878,105.015 327.824,95.8348 327.769,80.1961 327.714,61.9893 329.303,45.7182 329.248,35.6182 329.193,35.0241 329.138,45.0283 329.084,63.2638 329.029,84.0099 328.974,100.645 328.919,108.599 328.865,106.538 328.81,95.9306 328.755,80.129 328.7,64.9695 330.289,51.1898 330.234,41.751 330.179,39.7195 330.125,46.9639 330.07,63.3309 330.015,84.0099 329.96,100.827 329.906,108.532 329.851,105.916 329.741,79.3433 329.686,62.5068 331.275,47.6347 331.221,37.7072 331.166,35.762 331.111,43.8113 331.056,60.9448 331.001,82.1893 330.947,100.003 330.892,108.263 330.837,105.331 330.782,93.717 330.727,77.6376 330.673,61.1556 332.262,47.491 332.207,38.9817 332.152,37.9851 332.097,46.3315 332.042,63.5225 331.988,84.9874 331.933,103.098 331.878,111.09 331.823,106.96 331.768,93.7266 331.714,77.3788 331.659,63.4459 333.248,52.2535 333.193,45.0474 333.138,43.4567 333.083,49.3883 333.029,64.1454 332.974,84.5849 332.919,102.562 332.864,110.851 332.809,106.768 332.755,93.2667 332.7,76.9285 332.645,63.6375 334.234,53.7004 334.179,47.7305 334.124,46.5902 334.07,51.851 334.015,65.2474 333.96,84.3645 333.905,101.824 333.85,110.304 333.796,106.376 333.741,92.6534 333.686,76.1906 333.631,63.2638 335.22,54.4479 335.165,49.8387 335.111,49.5512 335.056,54.5533 335.001,66.7231 334.946,84.3262 334.891,100.923 334.837,109.452 334.782,105.868 334.727,92.1072 334.672,74.4658 334.617,59.1721 336.206,49.4841 336.152,45.7374 336.097,47.4239 336.042,54.5533 335.987,67.3076 335.932,84.0387 335.878,100.003 335.823,108.599 335.768,105.312 335.713,91.3118 335.659,73.8237 335.604,60.0441 337.193,51.8702 337.138,49.4554 337.083,51.6306 337.028,57.8113 336.973,69.205 336.919,84.4891 336.864,99.1024 336.809,107.315 336.754,104.612 336.7,91.216 336.645,72.6834 336.59,56.1536 338.179,46.3315 338.124,44.1946 338.069,48.363 338.014,57.313 337.96,69.9141 337.905,84.6711 337.85,98.3454 337.795,106.107 337.741,103.702 337.686,90.7656 337.631,73.1338 337.576,57.9551 339.165,48.7846 339.11,46.9639 339.056,51.1419 339.001,59.402 338.946,71.5239 338.891,85.409 338.836,97.6842 338.782,104.564 338.727,102.504 338.672,90.6985 338.617,72.693 338.562,55.0037 340.151,43.61 340.097,41.0898 340.042,46.6094 339.987,57.6772 339.932,71.5718 339.877,85.6869 339.823,97.2338 339.768,103.194 339.713,100.942 339.658,89.7499 339.603,73.6417 339.549,57.888 341.138,46.8298 341.083,43.5621 341.028,48.0755 340.973,58.118 340.918,72.0989 340.864,86.1852 340.809,96.8505 340.754,101.661 340.699,99.0545 340.644,88.7725 340.59,72.7409 340.535,55.6553 342.124,43.4088 342.069,39.9783 342.014,46.1207 341.959,59.4979 341.905,76.0085 341.85,91.1873 341.795,101.326 341.74,104.287 341.686,99.6678 341.631,88.4946 341.576,74.3891 341.521,60.0249 343.11,48.478 343.055,43.7729 343,47.7689 342.946,59.2391 342.891,75.9894 342.836,92.0401 342.781,102.466 342.727,104.833 342.672,99.4091 342.617,88.1592 342.562,73.565 342.507,58.0988 344.096,45.2103 344.042,39.0296 343.987,42.4601 343.932,55.2049 343.877,73.5171 343.822,91.4747 343.767,103.367 343.713,105.944 343.658,99.5911 343.603,87.2776 343.548,72.4055 343.494,57.3705 345.083,44.4533 345.028,37.0652 344.973,38.7517 344.918,50.5957 344.863,69.5883 344.809,89.5103 344.754,103.482 344.699,107.085 344.644,100.31 344.589,86.7793 344.535,71.0544 344.48,56.0577 346.069,43.2938 346.014,35.1008 345.959,35.0529 345.904,45.4499 345.85,64.452 345.795,86.0223 345.74,102.389 345.685,107.823 345.63,101.393 345.576,86.8272 345.521,70.1728 345.466,55.799 347.055,44.8654 347,38.1768 346.945,38.2343 346.891,47.7209 346.836,65.9852 346.781,87.728 346.726,105.024 346.671,111.301 346.617,104.833 346.562,89.3474 346.507,74.1591 346.452,62.2001 348.041,53.1926 347.986,46.6381 347.932,44.0029 347.877,48.7271 347.822,64.2604 347.767,85.0353 347.712,103.271 347.658,111.675 347.603,107.267 347.548,92.7971 347.493,74.7245 347.438,59.0954 349.027,48.478 348.973,42.5847 348.918,41.636 348.863,47.7018 348.808,62.1331 348.753,82.218 348.699,101.163 348.644,111.349 348.589,108.714 348.534,94.8861 348.48,76.0756 348.425,59.0762 350.014,47.7689 349.959,42.3547 349.904,42.211 349.849,48.2192 349.794,61.5581 349.74,80.5123 349.685,99.2653 349.63,110.439 349.575,109.231 349.521,96.2852 349.466,77.1201 349.411,58.9229 351,46.6381 350.945,41.5211 350.89,42.556 350.835,49.3596 350.781,62.3343 350.726,80.1578 350.671,98.1058 350.616,109.404 350.562,109.097 350.507,96.9655 350.452,77.7526 350.397,58.5492 351.986,45.2103 351.931,40.007 351.876,42.2302 351.822,50.4232 351.767,63.81 351.712,80.934 351.657,97.8279 351.603,108.647 351.548,108.647 351.493,97.2817 351.438,81.4131 351.383,64.7108 352.972,51.9181 352.918,45.929 352.863,46.7339 352.808,53.4609 352.753,66.656 352.698,82.6588 352.644,98.0292 352.589,107.985 352.534,108.311 352.479,98.2496 352.424,83.7225 352.37,67.4609 353.959,54.2179 353.904,47.5293 353.849,48.1713 353.794,55.4732 353.739,69.0612 353.685,84.5082 353.63,98.6904 353.575,107.717 353.52,108.072 353.466,98.7479 353.411,82.1414 353.356,63.3788 354.945,48.2288 354.89,41.0898 354.835,43.4567 354.78,53.8825 354.726,69.0708 354.671,85.409 354.616,99.3899 354.561,107.631 354.506,107.41 354.452,98.3837 354.397,85.4377 354.342,69.7032 355.931,55.3965 355.876,46.7531 355.821,46.2069 355.767,54.2562 355.712,69.5883 355.657,86.0223 355.602,99.5528 355.547,107.152 355.493,106.797 355.438,98.1537 355.383,83.09 355.328,65.5349 356.917,50.4041 356.863,42.0864 356.808,43.313 356.753,53.9304 356.698,70.5848 356.643,88.0921 356.589,101.699 356.534,108.321 356.479,106.749 356.424,97.9333 356.369,86.5397 356.314,72.4247 357.904,58.6259 357.849,49.0242 357.794,46.8969 357.739,54.3521 357.684,70.4124 357.63,87.9196 357.575,101.45 357.52,107.746 357.465,106.021 357.41,97.2817 357.356,83.6841 357.301,68.0934 358.89,53.8346 358.835,44.6162 358.78,43.6484 358.725,52.3206 358.67,68.515 358.616,86.741 358.561,100.827 358.506,106.893 358.451,104.43 358.397,95.164 358.342,81.7389 358.287,66.8668 359.876,53.3459 359.821,44.2425 359.766,42.7093 359.711,50.5957 359.657,66.4835 359.602,85.1024 359.547,99.687 359.492,105.609 359.438,102.389 359.383,92.4426 359.328,79.0175 359.273,64.9407 360.862,52.4451 360.807,43.9359 360.753,42.2014 360.698,49.2829 360.643,64.5191 360.588,83.1763 360.533,98.125 360.479,104.009 360.424,100.089 360.369,89.2708 360.314,75.6444 360.259,62.248 361.848,50.9982 361.794,43.5142 361.739,41.9714 361.684,48.4301 361.629,62.7943 361.574,81.0777 361.52,96.2372 361.465,102.226 361.41,97.7034 361.355,86.9518 361.301,75.8648 361.246,65.1132 362.835,55.8086 362.78,48.7175 362.725,45.4211 362.67,49.4362 362.615,62.2672 362.561,79.4583 362.506,94.4836 362.451,100.904 362.396,96.563 362.342,84.5082 362.287,70.1728 362.232,57.9551 363.821,50.0399 363.766,46.5231 363.711,47.6347 363.656,54.3808 363.602,67.1064 363.547,83.4254 363.492,97.6075 363.437,103.252 363.383,97.6842 363.328,83.9141 363.273,68.1221 363.218,55.5403 364.807,48.363 364.752,46.3219 364.697,48.7942 364.643,55.9619 364.588,68.0071 364.533,83.2338 364.478,96.8314 364.424,102.705 364.369,97.483 364.314,84.6328 364.259,70.8723 364.204,59.6129 365.793,53.1926 365.739,51.2377 365.684,52.723 365.629,58.8367 365.574,69.9716 365.519,83.7033 365.465,96.3331 365.41,102.504 365.355,98.3646 365.3,86.3864 365.245,72.4343 365.191,60.5136 366.78,53.8154 366.725,52.3685 366.67,54.7545 366.615,61.4431 366.56,72.0701 366.506,84.4891 366.451,95.9306 366.396,102.054 366.341,99.0258 366.286,86.8368 366.232,70.1345 366.177,55.5115 367.766,47.5772 367.711,47.2322 367.656,52.7518 367.601,61.9318 367.547,73.1338 367.492,84.9874 367.437,95.2694 367.382,100.684 367.327,98.01 367.273,88.2263 367.218,74.5903 367.163,60.9927 368.752,52.3014 368.697,50.337 368.642,54.0933 368.588,63.0242 368.533,74.6382 368.478,86.0319 368.423,95.2407 368.369,99.8786 368.314,97.6555 368.259,87.6801 368.204,72.1947 368.149,56.4602 369.738,46.1398 369.683,44.2617 369.629,50.3274 369.574,61.5869 369.519,74.6766 369.464,86.6451 369.41,95.2407 369.355,98.7 369.3,95.8252 369.245,88.0346 369.19,76.1427 369.136,62.0564 370.724,50.7874 370.67,46.2548 370.615,49.4554 370.56,60.2836 370.505,74.4849 370.45,87.3542 370.396,95.9306 370.341,98.6904 370.286,95.3077 370.231,86.1852 370.177,72.4822 370.122,57.4185 371.711,45.9194 371.656,42.3068 371.601,48.2192 371.546,61.6539 371.492,78.2029 371.437,92.778 371.382,101.441 371.327,102.533 371.272,96.7739 371.218,88.0346 371.163,77.0722 371.108,64.0687 372.697,52.1289 372.642,45.5649 372.587,47.5101 372.533,59.6129 372.478,77.0435 372.423,93.3625 372.368,103.51 372.313,105.091 372.259,98.882 372.204,87.6609 372.149,74.092 372.094,59.9674 373.683,47.6251 373.628,40.9269 373.574,43.3896 373.519,55.5403 373.464,73.8812 373.409,92.2605 373.354,104.449 373.3,106.912 373.245,100.147 373.19,87.6801 373.135,73.2775 373.08,59.2104 374.669,47.0406 374.615,39.595 374.56,40.5532 374.505,51.5444 374.45,70.0865 374.395,90.0469 374.341,104.315 374.286,108.215 374.231,101.498 374.176,87.9196 374.122,72.3864 374.067,58.118 375.656,46.3698 375.601,38.8859 375.546,38.79 375.491,48.3917 375.436,66.3685 375.382,87.1339 375.327,103.156 375.272,108.695 375.217,102.552 375.163,90.7848 375.108,76.7847 375.053,63.5034 376.642,52.1768 376.587,43.6005 376.532,40.3616 376.477,47.376 376.423,63.5034 376.368,83.8662 376.313,101.134 376.258,108.742 376.204,104.287 376.149,90.574 376.094,73.4692 376.039,58.4055 377.628,48.0563 377.573,42.6518 377.518,42.9393 377.464,50.6819 377.409,66.1769 377.354,85.8881 377.299,103.06 377.245,110.918 377.19,106.51 377.135,94.7136 377.08,78.9695 377.025,64.3754 378.614,53.9113 378.56,47.9318 378.505,46.6094 378.45,53.1926 378.395,67.0297 378.34,85.3419 378.286,102.303 378.231,111.234 378.176,108.34 378.121,94.8861 378.066,76.4781 378.012,59.8045 379.601,49.1296 379.546,45.3157 379.491,47.491 379.436,55.2624 379.381,68.7067 379.327,85.9265 379.272,102.063 379.217,110.918 379.162,108.388 379.107,95.1257 379.053,76.2385 378.998,58.5684" stroke-linecap="butt" stroke-linejoin="round"/>
  </g>
 </g>
</svg>
